<?xml version="1.0" encoding="UTF-8" standalone="no"?><!DOCTYPE svg PUBLIC "-//W3C//DTD SVG 1.1//EN" "http://www.w3.org/Graphics/SVG/1.1/DTD/svg11.dtd"><svg width="100%" height="100%" viewBox="0 0 1667 1667" version="1.1" xmlns="http://www.w3.org/2000/svg" xmlns:xlink="http://www.w3.org/1999/xlink" xml:space="preserve" xmlns:serif="http://www.serif.com/" style="fill-rule:evenodd;clip-rule:evenodd;stroke-linejoin:round;stroke-miterlimit:2;"><path d="M1666.67,416.667l-0,833.333c-0,229.965 -186.702,416.667 -416.667,416.667l-833.333,-0c-229.965,-0 -416.667,-186.702 -416.667,-416.667l0,-833.333c0,-229.965 186.702,-416.667 416.667,-416.667l833.333,0c229.965,0 416.667,186.702 416.667,416.667Zm-100,-0c-0,-174.773 -141.894,-316.667 -316.667,-316.667l-833.333,0c-174.773,0 -316.667,141.894 -316.667,316.667l-0,833.333c-0,174.773 141.894,316.667 316.667,316.667l833.333,-0c174.773,-0 316.667,-141.894 316.667,-316.667l-0,-833.333Z" style="fill:#fff;"/><g><path d="M425.463,1268.51l315.104,-870.346l-262.81,0l-307.059,870.346l254.765,0Z" style="fill:#f5e92f;fill-rule:nonzero;"/><path d="M1180.86,1268.51l315.104,-870.346l-262.81,0l-307.059,870.346l254.765,0Z" style="fill:#d131d3;fill-rule:nonzero;"/><path d="M804.614,1268.51l315.104,-870.346l-262.81,0l-307.059,870.346l254.765,0Z" style="fill:#e48723;fill-rule:nonzero;"/></g></svg>