<?xml version="1.0" encoding="UTF-8" standalone="no"?><!DOCTYPE svg PUBLIC "-//W3C//DTD SVG 1.1//EN" "http://www.w3.org/Graphics/SVG/1.1/DTD/svg11.dtd"><svg width="100%" height="100%" viewBox="0 0 8655 1939" version="1.1" xmlns="http://www.w3.org/2000/svg" xmlns:xlink="http://www.w3.org/1999/xlink" xml:space="preserve" xmlns:serif="http://www.serif.com/" style="fill-rule:evenodd;clip-rule:evenodd;stroke-linejoin:round;stroke-miterlimit:2;"><g><path d="M1359.82,1537.31l0,-447.362l-517.575,-0l-0,177.969l198.448,0c-20.113,47.54 -88.497,84.109 -182.358,84.109c-150.177,0 -226.606,-109.707 -226.606,-251.108c-0,-149.933 103.246,-234.042 229.288,-234.042c101.906,-0 183.699,34.131 219.903,115.802l258.787,0c-46.93,-235.261 -238.674,-340.093 -489.417,-340.093c-273.537,-0 -496.121,185.284 -496.121,457.114c-0,246.233 182.358,459.553 478.69,459.553c154.2,-0 261.469,-57.292 313.763,-123.116l0,101.174l213.198,0Z" style="fill:#fff;fill-rule:nonzero;"/><path d="M2441.9,1537.31l-422.373,-870.346l-152.859,0l-443.828,870.346l299.014,0l38.885,-98.737l331.195,0l41.567,98.737l308.399,0Zm-425.055,-284.02l-185.04,-0l92.52,-227.948l92.52,227.948Z" style="fill:#fff;fill-rule:nonzero;"/><path d="M3558.84,1537.31l0,-870.346l-399.579,0l-115.315,482.713l-107.269,-482.713l-421.033,0l0,870.346l246.72,0l0,-618.018l186.381,618.018l154.2,0l178.335,-618.018l0,618.018l277.56,0Z" style="fill:#fff;fill-rule:nonzero;"/><path d="M4485.38,1537.31l0,-210.882l-502.825,0l-0,-135.306l398.238,0l-0,-199.911l-398.238,-0l-0,-113.364l501.485,-0l-0,-210.883l-776.363,0l-0,870.346l777.703,0Z" style="fill:#fff;fill-rule:nonzero;"/><path d="M4973.46,1537.31c304.377,0 490.758,-203.568 490.758,-432.735c-0,-221.853 -174.313,-437.611 -492.099,-437.611l-359.353,0l-0,870.346l360.694,0Zm-85.816,-216.977l0,-437.611l71.066,0c139.45,0 227.948,78.015 227.948,230.386c-0,136.525 -88.498,207.225 -227.948,207.225l-71.066,0Z" style="fill:#fff;fill-rule:nonzero;"/><path d="M6355.9,1537.31l0,-210.882l-502.825,0l-0,-135.306l398.238,0l-0,-199.911l-398.238,-0l-0,-113.364l501.485,-0l-0,-210.883l-776.364,0l0,870.346l777.704,0Z" style="fill:#fff;fill-rule:nonzero;"/><path d="M6984.76,1537.31l315.104,-870.346l-262.81,0l-163.586,532.691l-174.313,-532.691l-286.946,0l317.786,870.346l254.765,0Z" style="fill:#fff;fill-rule:nonzero;"/></g><path d="M1966.18,267.589l6292.16,-0c218.467,-0 395.834,177.367 395.834,395.833l-0,879.167c-0,218.466 -177.367,395.833 -395.834,395.833l-7862.5,0c-218.466,0 -395.833,-177.367 -395.833,-395.833l-0,-879.167c-0,-218.466 177.367,-395.833 395.833,-395.833l282.844,-0l-0,125l-282.844,-0c-149.477,-0 -270.833,121.356 -270.833,270.833l-0,879.167c-0,149.477 121.356,270.833 270.833,270.833l7862.5,0c149.477,0 270.834,-121.356 270.834,-270.833l-0,-879.167c-0,-149.477 -121.357,-270.833 -270.834,-270.833l-6292.16,-0l-0,-125Z" style="fill:#fff;"/><g transform="matrix(1,0,0,0.909091,0,-194.939)"><g transform="matrix(563.425,0,0,563.425,1886.98,627.987)"></g><text x="762.382px" y="627.987px" style="font-family:'GalderglynnTitlingBl-Regular', 'Galderglynn Titling';font-weight:900;font-size:563.425px;fill:#fff;">STL</text></g><path d="M7362.7,1536.1l315.105,-870.346l-262.811,0l-307.059,870.346l254.765,0Z" style="fill:#f5e92f;fill-rule:nonzero;"/><path d="M8118.1,1536.1l315.105,-870.346l-262.811,0l-307.059,870.346l254.765,0Z" style="fill:#d131d3;fill-rule:nonzero;"/><path d="M7741.85,1536.1l315.105,-870.346l-262.811,0l-307.059,870.346l254.765,0Z" style="fill:#e48723;fill-rule:nonzero;"/></svg>