<?xml version="1.0" encoding="UTF-8" standalone="no"?>
<!DOCTYPE svg PUBLIC "-//W3C//DTD SVG 1.1//EN" "http://www.w3.org/Graphics/SVG/1.1/DTD/svg11.dtd">
<svg width="100%" height="100%" viewBox="0 0 400 400" version="1.1" xmlns="http://www.w3.org/2000/svg" xmlns:xlink="http://www.w3.org/1999/xlink" xml:space="preserve" xmlns:serif="http://www.serif.com/" style="fill-rule:evenodd;clip-rule:evenodd;">
    <g transform="matrix(1,0,0,1,-2306,-100)">
        <g transform="matrix(0.201743,0,0,1.10108,2247.77,5.09199)">
            <g transform="matrix(2.91149,0,0,1.17687,-27789.8,-5826.39)">
                <path d="M10325,5101.17L10325,5255.51C10325,5298.11 10248.7,5332.69 10154.8,5332.69L9814.25,5332.69C9720.29,5332.69 9644,5298.11 9644,5255.51L9644,5101.17C9644,5058.58 9720.29,5024 9814.25,5024L10154.8,5024C10248.7,5024 10325,5058.58 10325,5101.17ZM10284.1,5101.17C10284.1,5068.8 10226.2,5042.52 10154.8,5042.52L9814.25,5042.52C9742.84,5042.52 9684.86,5068.8 9684.86,5101.17L9684.86,5255.51C9684.86,5287.88 9742.84,5314.16 9814.25,5314.16L10154.8,5314.16C10226.2,5314.16 10284.1,5287.88 10284.1,5255.51L10284.1,5101.17Z" style="fill:white;"/>
            </g>
        </g>
        <g transform="matrix(0.201743,0,0,1.10108,2247.77,5.09199)">
            <g transform="matrix(121.952,0,0,22.3445,-102485,-9336.09)">
                <path d="M846.888,434.057L849.962,425.566L847.399,425.566L844.403,434.057L846.888,434.057Z" style="fill:rgb(245,233,47);fill-rule:nonzero;"/>
            </g>
        </g>
        <g transform="matrix(0.201743,0,0,1.10108,2247.77,5.09199)">
            <g transform="matrix(121.952,0,0,22.3445,-101587,-9336.09)">
                <path d="M846.888,434.057L849.962,425.566L847.399,425.566L844.403,434.057L846.888,434.057Z" style="fill:rgb(209,49,211);fill-rule:nonzero;"/>
            </g>
        </g>
        <g transform="matrix(0.201743,0,0,1.10108,2247.77,5.09199)">
            <g transform="matrix(121.952,0,0,22.3445,-102034,-9336.09)">
                <path d="M846.888,434.057L849.962,425.566L847.399,425.566L844.403,434.057L846.888,434.057Z" style="fill:rgb(228,135,35);fill-rule:nonzero;"/>
            </g>
        </g>
    </g>
</svg>
