<?xml version="1.0" encoding="UTF-8" standalone="no"?>
<!DOCTYPE svg PUBLIC "-//W3C//DTD SVG 1.1//EN" "http://www.w3.org/Graphics/SVG/1.1/DTD/svg11.dtd">
<svg width="100%" height="100%" viewBox="0 0 2077 466" version="1.1" xmlns="http://www.w3.org/2000/svg" xmlns:xlink="http://www.w3.org/1999/xlink" xml:space="preserve" xmlns:serif="http://www.serif.com/" style="fill-rule:evenodd;clip-rule:evenodd;stroke-linejoin:round;stroke-miterlimit:2;">
    <g transform="matrix(1,0,0,1,-36,-35.7786)">
        <g transform="matrix(0.942679,0,0,0.647425,162.963,129.413)">
            <rect x="-210" y="-325" width="3053" height="1126"/>
        </g>
        <g id="FINAL" transform="matrix(1.01609,0,0,1.34208,-217.733,-97.3979)">
            <rect x="214.286" y="72.573" width="2131.43" height="390.527" style="fill:none;"/>
            <g transform="matrix(24.2135,0,0,18.3321,-18606.6,-7583.01)">
                <path d="M792.018,434.057L792.018,429.693L786.969,429.693L786.969,431.429L788.905,431.429C788.708,431.892 788.041,432.249 787.126,432.249C785.661,432.249 784.915,431.179 784.915,429.8C784.915,428.337 785.922,427.516 787.152,427.516C788.146,427.516 788.944,427.849 789.297,428.646L791.821,428.646C791.364,426.351 789.493,425.329 787.047,425.329C784.379,425.329 782.208,427.136 782.208,429.788C782.208,432.19 783.987,434.271 786.877,434.271C788.381,434.271 789.428,433.712 789.938,433.07L789.938,434.057L792.018,434.057Z" style="fill:white;fill-rule:nonzero;"/>
                <path d="M802.573,434.057L798.453,425.566L796.962,425.566L792.632,434.057L795.549,434.057L795.929,433.093L799.159,433.093L799.565,434.057L802.573,434.057ZM798.427,431.286L796.622,431.286L797.524,429.062L798.427,431.286Z" style="fill:white;fill-rule:nonzero;"/>
                <path d="M813.469,434.057L813.469,425.566L809.571,425.566L808.446,430.275L807.4,425.566L803.293,425.566L803.293,434.057L805.699,434.057L805.699,428.028L807.518,434.057L809.022,434.057L810.761,428.028L810.761,434.057L813.469,434.057Z" style="fill:white;fill-rule:nonzero;"/>
                <path d="M822.507,434.057L822.507,431.999L817.602,431.999L817.602,430.679L821.487,430.679L821.487,428.729L817.602,428.729L817.602,427.623L822.494,427.623L822.494,425.566L814.921,425.566L814.921,434.057L822.507,434.057Z" style="fill:white;fill-rule:nonzero;"/>
                <path d="M827.268,434.057C830.238,434.057 832.056,432.071 832.056,429.835C832.056,427.671 830.355,425.566 827.255,425.566L823.75,425.566L823.75,434.057L827.268,434.057ZM826.431,431.94L826.431,427.671L827.125,427.671C828.485,427.671 829.348,428.432 829.348,429.918C829.348,431.25 828.485,431.94 827.125,431.94L826.431,431.94Z" style="fill:white;fill-rule:nonzero;"/>
                <path d="M840.754,434.057L840.754,431.999L835.849,431.999L835.849,430.679L839.734,430.679L839.734,428.729L835.849,428.729L835.849,427.623L840.741,427.623L840.741,425.566L833.167,425.566L833.167,434.057L840.754,434.057Z" style="fill:white;fill-rule:nonzero;"/>
                <path d="M846.888,434.057L849.962,425.566L847.399,425.566L845.803,430.763L844.102,425.566L841.303,425.566L844.403,434.057L846.888,434.057Z" style="fill:white;fill-rule:nonzero;"/>
            </g>
            <g transform="matrix(0.941489,0,0,0.723763,205.814,-304.546)">
                <path d="M539.903,624.003L2118.47,624.003C2173.28,624.003 2217.78,667.827 2217.78,721.806L2217.78,939.03C2217.78,993.009 2173.28,1036.83 2118.47,1036.83L145.937,1036.83C91.128,1036.83 46.63,993.009 46.63,939.03L46.63,721.806C46.63,667.827 91.128,624.003 145.937,624.003L216.896,624.003L216.896,654.888L145.937,654.888C108.436,654.888 77.99,684.873 77.99,721.806L77.99,939.03C77.99,975.963 108.436,1005.95 145.937,1005.95L2118.47,1005.95C2155.97,1005.95 2186.42,975.963 2186.42,939.03L2186.42,721.806C2186.42,684.873 2155.97,654.888 2118.47,654.888L539.903,654.888L539.903,624.003Z" style="fill:white;"/>
            </g>
            <g transform="matrix(1.00841,0,0,0.763472,-44.6813,-284.233)">
                <path d="M556.03,530.218C554.842,510.903 535.311,502.265 516.439,502.265C497.303,502.265 477.243,509.463 477.243,530.218C477.243,557.212 510.632,555.533 528.844,560.092C531.879,561.051 534.519,562.251 534.519,565.73C534.519,572.089 524.225,572.209 519.078,572.209C510.764,572.209 499.942,570.649 497.039,562.131L472.493,562.131C473.416,567.65 475,572.689 478.827,577.488C487.669,588.525 504.429,592.484 517.363,592.484C539.798,592.484 558.405,585.046 558.405,563.211C558.405,554.573 555.238,547.974 546.924,543.415C538.082,538.736 524.885,537.657 514.855,535.737C510.104,535.017 500.734,534.297 500.734,528.779C500.734,522.54 510.236,522.3 515.383,522.3C521.718,522.3 530.032,523.14 531.879,530.218L556.03,530.218Z" style="fill:white;fill-rule:nonzero;"/>
                <path d="M616.341,590.325L616.341,526.739L642.603,526.739L642.603,504.664L562.892,504.664L562.892,526.739L589.155,526.739L589.155,590.325L616.341,590.325Z" style="fill:white;fill-rule:nonzero;"/>
                <path d="M730.891,590.325L730.891,568.25L679.159,568.25L679.159,504.664L652.105,504.664L652.105,590.325L730.891,590.325Z" style="fill:white;fill-rule:nonzero;"/>
            </g>
            <g transform="matrix(24.2135,0,0,18.3321,-18517.3,-7583.22)">
                <path d="M846.888,434.057L849.962,425.566L847.399,425.566L844.403,434.057L846.888,434.057Z" style="fill:rgb(245,233,47);fill-rule:nonzero;"/>
            </g>
            <g transform="matrix(24.2135,0,0,18.3321,-18338.9,-7583.22)">
                <path d="M846.888,434.057L849.962,425.566L847.399,425.566L844.403,434.057L846.888,434.057Z" style="fill:rgb(209,49,211);fill-rule:nonzero;"/>
            </g>
            <g transform="matrix(24.2135,0,0,18.3321,-18427.8,-7583.22)">
                <path d="M846.888,434.057L849.962,425.566L847.399,425.566L844.403,434.057L846.888,434.057Z" style="fill:rgb(228,135,35);fill-rule:nonzero;"/>
            </g>
        </g>
    </g>
</svg>
